HIERARCHY
ROOT Hips
{
	OFFSET -0.001795 -0.223333 0.028219
	CHANNELS 6 Xposition Yposition Zposition Zrotation Yrotation Xrotation 
	JOINT LeftUpLeg
	{
		OFFSET 0.069520 -0.091406 -0.006815
		CHANNELS 3 Zrotation Yrotation Xrotation
		JOINT LeftLeg
		{
			OFFSET 0.034277 -0.375199 -0.004496
			CHANNELS 3 Zrotation Yrotation Xrotation
			JOINT LeftFoot
			{
				OFFSET -0.013596 -0.397961 -0.043693
				CHANNELS 3 Zrotation Yrotation Xrotation
				JOINT LeftToe
				{
					OFFSET 0.026358 -0.055791 0.119288
					CHANNELS 3 Zrotation Yrotation Xrotation
					End Site
					{
						OFFSET 0.000000 0.000000 0.000000
					}
				}
			}
		}
	}
	JOINT RightUpLeg
	{
		OFFSET -0.067670 -0.090522 -0.004320
		CHANNELS 3 Zrotation Yrotation Xrotation
		JOINT RightLeg
		{
			OFFSET -0.038290 -0.382569 -0.008850
			CHANNELS 3 Zrotation Yrotation Xrotation
			JOINT RightFoot
			{
				OFFSET 0.015774 -0.398415 -0.042312
				CHANNELS 3 Zrotation Yrotation Xrotation
				JOINT RightToe
				{
					OFFSET -0.025372 -0.048144 0.123348
					CHANNELS 3 Zrotation Yrotation Xrotation
					End Site
					{
						OFFSET 0.000000 0.000000 0.000000
					}
				}
			}
		}
	}
	JOINT Spine
	{
		OFFSET -0.002533 0.108963 -0.026696
		CHANNELS 3 Zrotation Yrotation Xrotation
		JOINT Spine1
		{
			OFFSET 0.005487 0.135180 0.001092
			CHANNELS 3 Zrotation Yrotation Xrotation
			JOINT Spine2
			{
				OFFSET 0.001457 0.052922 0.025425
				CHANNELS 3 Zrotation Yrotation Xrotation
				JOINT Neck
				{
					OFFSET -0.002778 0.213870 -0.042857
					CHANNELS 3 Zrotation Yrotation Xrotation
					JOINT Head
					{
						OFFSET 0.005152 0.064970 0.051349
						CHANNELS 3 Zrotation Yrotation Xrotation
						End Site
						{
							OFFSET 0.000000 0.000000 0.000000
						}
					}
				}
				JOINT LeftShoulder
				{
					OFFSET 0.078845 0.121749 -0.034090
					CHANNELS 3 Zrotation Yrotation Xrotation
					JOINT LeftArm
					{
						OFFSET 0.090977 0.030469 -0.008868
						CHANNELS 3 Zrotation Yrotation Xrotation
						JOINT LeftForeArm
						{
							OFFSET 0.259612 -0.012772 -0.027456
							CHANNELS 3 Zrotation Yrotation Xrotation
							JOINT LeftHand
							{
								OFFSET 0.249234 0.008986 -0.001171
								CHANNELS 3 Zrotation Yrotation Xrotation
								End Site
								{
									OFFSET 0.000000 0.000000 0.000000
								}
							}
						}
					}
				}
				JOINT RightShoulder
				{
					OFFSET -0.081759 0.118833 -0.038615
					CHANNELS 3 Zrotation Yrotation Xrotation
					JOINT RightArm
					{
						OFFSET -0.096012 0.032551 -0.009143
						CHANNELS 3 Zrotation Yrotation Xrotation
						JOINT RightForeArm
						{
							OFFSET -0.253742 -0.013329 -0.021401
							CHANNELS 3 Zrotation Yrotation Xrotation
							JOINT RightHand
							{
								OFFSET -0.255298 0.007772 -0.005559
								CHANNELS 3 Zrotation Yrotation Xrotation
								End Site
								{
									OFFSET 0.000000 0.000000 0.000000
								}
							}
						}
					}
				}
			}
		}
	}
}
MOTION
Frames: 13
Frame Time: 0.050000
1.947034 0.942618 0.773086 -28.298112 73.241581 -27.094744 15.862165 -6.644506 7.807253 -3.193597 -1.316555 -8.463135 21.771478 23.341937 30.796272 0.000000 0.000000 0.000000 -7.874827 -4.622255 -16.359545 1.631414 -0.706350 -0.717601 -13.564752 -10.806202 45.293558 0.000000 0.000000 0.000000 -11.191731 -4.369256 26.349396 5.688544 0.770682 -25.395790 1.472406 4.171957 35.448399 6.370790 4.828335 -19.507785 0.000000 0.000000 0.000000 -16.910419 -3.245735 -14.520125 -34.196540 -11.011094 0.523794 -8.997733 -39.961041 -0.034129 0.000000 0.000000 0.000000 13.927896 -4.133408 6.202156 54.824321 2.161940 -5.667895 -0.972488 27.312048 1.654399 0.000000 0.000000 0.000000 
1.967013 0.935734 0.795025 -22.883200 73.480387 -23.140860 14.878357 -7.084548 10.692283 -3.262483 -1.160423 -7.938635 22.153391 23.461686 30.703316 0.000000 0.000000 0.000000 -8.926840 -4.854435 -15.493344 1.202688 -0.671490 0.430119 -14.320457 -11.759387 46.808007 0.000000 0.000000 0.000000 -9.464256 -4.184053 25.612539 5.350454 0.786326 -26.710866 1.084197 3.230466 35.722582 8.348736 2.828161 -17.485688 0.000000 0.000000 0.000000 -18.626748 -1.960181 -15.939328 -35.324362 -7.865685 -0.354169 -16.263926 -41.050726 2.772432 0.000000 0.000000 0.000000 13.062067 -4.452831 5.283201 55.084959 1.725152 -5.418644 -0.215672 27.884312 1.907166 0.000000 0.000000 0.000000 
1.987557 0.928981 0.822331 -18.305762 73.337491 -19.445172 15.235362 -8.121780 13.083937 -4.700882 -1.227499 -7.444260 22.608735 23.781747 31.769281 0.000000 0.000000 0.000000 -9.810818 -5.093182 -14.897298 1.273914 -0.925007 2.834492 -13.803635 -11.481895 47.443536 0.000000 0.000000 0.000000 -7.906426 -3.616009 23.646373 5.313065 0.957910 -25.265565 0.618219 2.140190 34.117520 8.235046 2.239773 -16.191383 0.000000 0.000000 0.000000 -18.916734 -1.000008 -16.041197 -37.373848 -4.952392 -1.504101 -22.245541 -41.068664 4.856856 0.000000 0.000000 0.000000 12.043116 -3.588497 4.992504 53.990258 0.354999 -5.583176 2.024831 30.047369 2.683724 0.000000 0.000000 0.000000 
2.006860 0.925181 0.855186 -15.260219 73.778578 -17.290276 16.012016 -9.291638 14.809275 -5.235230 -1.061330 -6.050157 20.119832 22.982237 32.717046 0.000000 0.000000 0.000000 -10.050493 -5.207789 -14.730708 3.570022 -2.393157 7.040667 -17.407832 -15.571270 45.148623 0.000000 0.000000 0.000000 -5.501070 -3.394754 22.286571 4.937064 1.056651 -25.362419 0.152269 0.753790 33.093012 8.777753 1.498634 -15.557253 0.000000 0.000000 0.000000 -19.952604 -0.384209 -16.795308 -39.336567 -1.473352 -2.700154 -26.902562 -39.736812 6.259865 0.000000 0.000000 0.000000 11.499617 -4.587701 3.926225 53.067498 -1.279529 -5.941360 4.771693 32.992575 4.116544 0.000000 0.000000 0.000000 
2.022977 0.923494 0.891982 -11.895176 72.764833 -14.303615 16.954686 -10.079895 15.675258 -5.634396 -0.769473 -3.597544 17.597848 22.386390 34.988757 0.000000 0.000000 0.000000 -9.515493 -4.688026 -14.250734 5.349386 -3.680250 9.480784 -19.657902 -19.725360 39.201051 0.000000 0.000000 0.000000 -3.846146 -3.034174 20.773001 5.206961 0.972256 -25.870928 -0.256482 -0.699428 33.079181 8.032850 2.267642 -16.627367 0.000000 0.000000 0.000000 -20.844747 1.255744 -17.554709 -41.563302 1.524437 -4.176024 -31.471711 -38.152518 7.496453 0.000000 0.000000 0.000000 11.898565 -6.015133 3.004251 51.338697 -1.177769 -6.105147 7.358116 35.483559 5.740932 0.000000 0.000000 0.000000 
2.034807 0.923984 0.930407 -8.920407 71.714806 -12.004583 18.478078 -10.642748 15.545659 -7.499216 -0.636812 0.030277 16.939327 22.515545 38.929635 0.000000 0.000000 0.000000 -8.809279 -4.173365 -14.098825 7.292636 -5.402527 12.414209 -21.603257 -24.625275 34.487580 0.000000 0.000000 0.000000 -2.018367 -3.122780 20.484446 5.406973 0.856347 -26.432351 -1.278689 -2.301526 31.829706 7.895637 2.382615 -18.124510 0.000000 0.000000 0.000000 -21.204074 2.077500 -17.055099 -42.764577 3.785185 -5.304378 -32.543983 -36.293024 7.514804 0.000000 0.000000 0.000000 11.092756 -6.395490 1.945550 50.338825 -2.406281 -6.362031 10.760796 39.514956 8.361074 0.000000 0.000000 0.000000 
2.043118 0.927034 0.968270 -5.053390 68.853117 -8.432647 19.675887 -10.341296 14.581673 -9.227019 -0.523126 4.587382 15.774426 22.700517 40.404378 0.000000 0.000000 0.000000 -7.470023 -3.131096 -13.269892 8.152001 -5.750971 12.721098 -21.309944 -27.445764 29.262891 0.000000 0.000000 0.000000 -1.153366 -3.033928 20.176459 5.609487 0.724899 -26.839595 -2.419389 -3.681753 31.508912 6.873603 2.973253 -19.945370 0.000000 0.000000 0.000000 -22.079825 2.804452 -16.536088 -43.911754 2.789779 -5.335786 -32.053075 -34.278865 7.229101 0.000000 0.000000 0.000000 11.333617 -7.059575 1.172970 48.881150 -0.683638 -6.013519 11.247673 42.258513 9.687243 0.000000 0.000000 0.000000 
2.049015 0.931857 1.003451 -2.309729 65.137501 -5.633869 21.328721 -9.611165 12.187159 -12.128595 -0.589259 10.749434 15.371671 23.239706 41.712067 0.000000 0.000000 0.000000 -5.843632 -2.180818 -13.191698 7.849467 -5.503161 13.371895 -19.531155 -27.087822 25.807961 0.000000 0.000000 0.000000 0.333168 -2.584589 18.257515 5.207894 0.801274 -25.824738 -3.317736 -5.221754 30.324350 5.972268 3.021083 -20.709454 0.000000 0.000000 0.000000 -22.695625 1.547105 -14.722571 -44.141791 1.122159 -4.862613 -28.593006 -33.754685 6.554096 0.000000 0.000000 0.000000 11.434699 -7.347575 0.493687 46.894845 1.050706 -5.606643 11.279978 44.545939 10.575321 0.000000 0.000000 0.000000 
2.054478 0.936897 1.035991 -0.470000 61.117131 -4.395796 21.418556 -8.597834 11.023422 -14.221388 -0.597674 14.536953 18.152969 25.140542 41.080234 0.000000 0.000000 0.000000 -3.917005 -1.117701 -11.602780 6.968535 -4.652350 12.824653 -17.747679 -26.416666 22.850428 0.000000 0.000000 0.000000 1.073804 -2.382495 17.430833 5.568941 0.640870 -25.461952 -4.742702 -6.554834 30.361295 5.908041 2.678400 -21.984551 0.000000 0.000000 0.000000 -23.588167 2.266944 -14.145444 -43.486842 -3.198241 -3.368133 -27.774034 -34.543463 6.871740 0.000000 0.000000 0.000000 9.415369 -6.454810 -0.104791 46.751650 2.860473 -4.828352 9.125218 48.044385 10.917530 0.000000 0.000000 0.000000 
2.060333 0.941951 1.065745 1.154212 56.596483 -3.921603 20.487286 -7.112445 9.920698 -15.324378 -0.533526 17.756918 18.711134 26.545551 34.762997 0.000000 0.000000 0.000000 -2.622884 -0.414237 -9.019188 6.470596 -3.842730 11.726112 -15.459124 -24.788700 19.982733 0.000000 0.000000 0.000000 1.599501 -2.194920 16.761513 5.780065 0.466157 -25.697588 -4.909657 -6.194119 30.553248 6.224382 2.216343 -22.857867 0.000000 0.000000 0.000000 -23.293106 1.253236 -12.439719 -42.913371 -7.098770 -2.216814 -24.524287 -36.675757 6.589853 0.000000 0.000000 0.000000 9.588441 -6.629787 -0.426252 42.896674 5.955114 -4.114450 5.437078 50.470943 9.858389 0.000000 0.000000 0.000000 
2.066300 0.945719 1.093557 1.851213 52.635574 -4.739602 18.815404 -5.713497 9.328418 -14.716431 -0.459908 18.775080 18.143812 26.915070 27.629446 0.000000 0.000000 0.000000 -1.178245 -0.010206 -5.873016 5.804794 -3.148765 10.843914 -13.414025 -23.042567 17.594440 0.000000 0.000000 0.000000 1.561359 -2.059148 16.636425 6.134527 0.289263 -25.805023 -5.009839 -5.911631 30.919645 6.177394 1.780020 -22.327965 0.000000 0.000000 0.000000 -22.191491 1.011577 -10.857631 -41.827240 -13.097122 -0.556436 -20.514357 -39.882310 6.016411 0.000000 0.000000 0.000000 7.716854 -5.468581 -0.500510 40.085334 7.030488 -3.775041 0.173742 53.819149 8.077205 0.000000 0.000000 0.000000 
2.072022 0.949302 1.119479 2.848030 47.144773 -5.200040 15.711398 -3.736655 7.932931 -12.113267 -0.578892 20.389727 16.852978 26.678063 24.726113 0.000000 0.000000 0.000000 0.254171 0.149995 -3.270740 4.117492 -2.160059 10.566991 -10.761546 -19.888368 15.096459 0.000000 0.000000 0.000000 0.713937 -1.626352 15.709005 7.286914 -0.139158 -25.501146 -5.213825 -4.911321 31.436352 4.270843 2.465361 -21.621853 0.000000 0.000000 0.000000 -21.417644 0.832298 -9.367057 -39.683820 -18.007974 0.573162 -16.514013 -43.079125 5.352416 0.000000 0.000000 0.000000 7.228169 -3.658270 0.089240 36.693503 8.902903 -3.356520 -7.997724 55.730337 3.811828 0.000000 0.000000 0.000000 
2.075752 0.951223 1.144670 3.176301 42.137249 -6.012126 13.663897 -2.354537 5.160290 -9.825188 -0.902342 22.554700 14.605647 25.310921 19.992891 0.000000 0.000000 0.000000 1.566904 0.053099 -0.628869 2.974893 -1.454011 9.910524 -8.395090 -16.649031 12.941183 0.000000 0.000000 0.000000 0.297490 -1.386515 15.175951 8.414470 -0.574597 -25.798687 -5.277450 -3.574808 32.653871 3.276702 2.824196 -21.409354 0.000000 0.000000 0.000000 -19.404880 0.446605 -7.667577 -38.719327 -23.960669 1.807975 -9.312487 -46.363167 2.912210 0.000000 0.000000 0.000000 6.602148 -2.699536 0.282503 33.280085 10.715948 -3.030863 -14.051701 56.919239 0.552270 0.000000 0.000000 0.000000 
